<svg xmlns="http://www.w3.org/2000/svg" xmlns:xlink="http://www.w3.org/1999/xlink" viewBox="0 0 477.61 99.05"><defs><style>.cls-1{stroke:#059e9e;stroke-miterlimit:10;stroke-width:1.99px;fill:url(#Безымянный_градиент_2);}.cls-2{fill:#fff;}.cls-3{fill:#059e9e;}.cls-4{font-size:68.36px;fill:#19181f;font-family:OpenSans-Regular, Open Sans;letter-spacing:0.02em;}</style><radialGradient id="Безымянный_градиент_2" cx="214398.16" cy="175299.38" r="2719.65" gradientTransform="matrix(0.02, 0, 0, -0.02, -3476.31, 3241.89)" gradientUnits="userSpaceOnUse"><stop offset="0" stop-color="#b9f9f9"/><stop offset="1" stop-color="#68dfdf"/></radialGradient></defs><g id="Слой_2" data-name="Слой 2"><g id="Layer_1" data-name="Layer 1"><g id="g924"><circle id="path33" class="cls-1" cx="428.08" cy="49.53" r="48.53"/><path id="path905" class="cls-2" d="M427.35,6.5a23.53,23.53,0,0,0-4.11.87c-3.59.91-4.12,1.17-4.12,2,0,.18.56,2.65,1.24,5.5a51.34,51.34,0,0,1,1.12,5.29,12.74,12.74,0,0,1-1.88.57c-1.25.31-1.78.38-1.83.24s-.58-2.54-1.19-5.39a33.13,33.13,0,0,0-1.46-5.61c-.47-.6-1-.55-5,.41-3.56.86-4.1,1.11-4.1,1.92,0,.23.57,2.82,1.26,5.76s1.23,5.38,1.18,5.43-3.19.82-7,1.7a63.48,63.48,0,0,0-7.19,1.9c-.25.23-.31.48-.25,1a63,63,0,0,0,2.05,8.08c.39.38,1,.32,3.65-.37a20.27,20.27,0,0,1,3.31-.62,3.52,3.52,0,0,1,2.71,1.16c.42.65,1.82,6.26,4.21,16.94,1.09,4.89,2.33,10.29,2.76,12,.92,3.73,1.06,4.63.82,5.25s-1.44,1.2-4.21,1.75c-1.82.37-2.59.6-2.86.87l-.37.37.32,4.79a47,47,0,0,0,.49,5.11,1,1,0,0,0,.57.42c.39.1,2.35-.33,10.42-2.26,2.06-.49,3.77-.87,3.81-.83s.64,2.59,1.36,5.69c.88,3.82,1.4,5.74,1.62,6a1.08,1.08,0,0,0,.61.31,63.55,63.55,0,0,0,8-2.09,1.06,1.06,0,0,0,.32-.68c0-.22-.57-2.76-1.26-5.65s-1.23-5.35-1.19-5.47a11,11,0,0,1,3.72-.84c.06.06.52,1.89,1,4.06s1.11,4.68,1.33,5.56c.59,2.33.43,2.3,5.18,1.17a40.15,40.15,0,0,0,4.05-1.1c.41-.34.26-1.36-1-6.79-.68-2.91-1.2-5.34-1.16-5.4a5,5,0,0,1,1.19-.42,32.18,32.18,0,0,0,11.85-6c3.2-2.67,4.57-5.37,5.16-10.16a23.39,23.39,0,0,0-1.29-10,12.78,12.78,0,0,0-10.22-8c-1.11-.11-1.47,0-.58-.93a11.35,11.35,0,0,0,2.05-4.62,14.82,14.82,0,0,0-1.33-9.94,19,19,0,0,0-4.83-5.1c-2.6-1.73-6.57-2.55-11.16-2.3-1.38.08-2.87.15-3.31.16l-.79,0-1.29-5.42a57.84,57.84,0,0,0-1.58-5.87.85.85,0,0,0-.85-.43Zm2.32,23.1a12.22,12.22,0,0,1,3.45.37,9.14,9.14,0,0,1,3,1.67,6.8,6.8,0,0,1,1.55,4.75,8,8,0,0,1-2.26,3.71c-1.65,1.57-5.36,3.15-9.66,4.12-2.22.5-2.67.54-2.79.22-.35-.91-2.92-13-2.8-13.1A37.78,37.78,0,0,1,426,29.87,23.92,23.92,0,0,1,429.67,29.6Zm8.52,21.64a8.07,8.07,0,0,1,5.41,1.51,3.87,3.87,0,0,1,1.85,2,10,10,0,0,1,.76,2.41A4.85,4.85,0,0,1,445,61.34c-1.45,2-3.61,3.25-8,4.76-1.86.64-7.79,2.24-8.31,2.24,0,0-.17-.19-.27-.41-.28-.67-3.25-14.14-3.17-14.37s5-1.48,8-1.93a35.59,35.59,0,0,1,4.71-.39Z"/><path id="path907" class="cls-3" d="M427.35,5.51A21,21,0,0,0,423,6.4a21,21,0,0,0-3.59,1.1,2.38,2.38,0,0,0-1,.75,2,2,0,0,0-.32,1.09.77.77,0,0,0,.05.35c0,.11,0,.24.07.39l.27,1.23c.23,1,.54,2.33.88,3.76s.64,2.72.84,3.66c.06.28.11.52.15.73l-1,.28-.81.18c-.05-.24-.11-.53-.19-.87-.22-1-.5-2.29-.81-3.72h0c-.37-1.7-.68-3-.94-4q-.18-.72-.33-1.17a1.81,1.81,0,0,0-.38-.82,2.1,2.1,0,0,0-.86-.65,2.93,2.93,0,0,0-1.19-.11,30.24,30.24,0,0,0-4,.81,19.59,19.59,0,0,0-3.57,1,2.3,2.3,0,0,0-1,.75,2,2,0,0,0-.32,1.09,1.25,1.25,0,0,0,0,.36c0,.12.05.25.08.42.07.33.16.77.28,1.3.23,1.05.55,2.43.9,3.91s.65,2.8.86,3.77c.06.27.11.5.15.71l-1.2.29c-1.25.31-3,.72-4.86,1.16h0c-2.12.5-3.87.93-5.13,1.26-.63.17-1.14.31-1.52.43l-.48.16a.85.85,0,0,0-.5.28h0a1.9,1.9,0,0,0-.55.89,2.71,2.71,0,0,0,0,1c.1.9.55,2.75,1,4.59.24.91.47,1.8.67,2.48.1.34.19.63.27.86s.07.21.11.31,0,.14.28.43h0a1.88,1.88,0,0,0,.83.47,3,3,0,0,0,.95,0,20.73,20.73,0,0,0,2.82-.62c.64-.16,1.33-.32,1.9-.42s1.1-.17,1.16-.17h0a3.54,3.54,0,0,1,1.86.7l.12.28c.07.21.16.51.28.89.22.76.5,1.85.85,3.25.7,2.81,1.64,6.87,2.84,12.21,1.09,4.89,2.33,10.28,2.76,12s.72,3,.83,3.71.07.84,0,1-.06.14-.62.37a16.66,16.66,0,0,1-2.85.76c-.93.18-1.59.34-2.11.49a2.76,2.76,0,0,0-1.26.65l-.69.69.34,5.23h0c.09,1.33.19,2.56.28,3.5,0,.47.09.87.13,1.17s0,.28.06.39a.74.74,0,0,0,.14.45h0a1.65,1.65,0,0,0,1.21.93,2.17,2.17,0,0,0,1.05,0c.4-.06.95-.17,1.73-.34,1.56-.34,4.07-.93,8.11-1.89,1-.25,2-.47,2.64-.61l.21,0c.05.23.11.49.19.79l.93,4c.44,1.91.79,3.35,1.07,4.36.14.5.25.9.36,1.2a3.36,3.36,0,0,0,.16.42,1.14,1.14,0,0,0,.29.45,2.31,2.31,0,0,0,.56.4,1.38,1.38,0,0,0,.76.21,3.47,3.47,0,0,0,.73-.1l1-.22c.78-.18,1.73-.42,2.68-.67s1.87-.5,2.59-.71l.92-.29.32-.12c.1,0,.14,0,.42-.25h0a1.67,1.67,0,0,0,.65-1.41,1,1,0,0,0-.05-.36c0-.11,0-.25-.07-.41-.07-.32-.16-.75-.28-1.27-.23-1-.55-2.39-.9-3.84h0c-.34-1.44-.65-2.77-.86-3.75l-.18-.87.95-.24.93-.19c0,.14.07.29.11.46.19.72.43,1.72.68,2.8.51,2.17,1.11,4.67,1.34,5.58a7.67,7.67,0,0,0,.45,1.49,2.11,2.11,0,0,0,1.32,1.11c1.17.26,2.23-.15,4.6-.72,1.06-.25,2-.5,2.79-.7.37-.1.69-.19.93-.27l.32-.11c.09,0,.1,0,.41-.22h0a1.76,1.76,0,0,0,.55-1.1,5,5,0,0,0-.08-1.29c-.15-1.06-.51-2.67-1.14-5.39-.34-1.45-.64-2.78-.85-3.75-.06-.3-.12-.56-.17-.79l.34-.1h0A32.82,32.82,0,0,0,458,69.86c3.35-2.79,4.91-5.87,5.52-10.8a24,24,0,0,0-1.35-10.46,13.78,13.78,0,0,0-10.5-8.6,13.26,13.26,0,0,0,1.79-4.4A15.63,15.63,0,0,0,452,25a18.87,18.87,0,0,0-5.15-5.44c-2.87-1.91-7-2.72-11.77-2.46-1.36.08-2.86.15-3.26.16l-1.1-4.64c-.36-1.5-.71-2.91-1-4-.14-.54-.27-1-.38-1.34-.05-.17-.1-.32-.14-.44a1.36,1.36,0,0,0-.19-.42h0a1.91,1.91,0,0,0-.66-.63,2.07,2.07,0,0,0-1-.24Zm0,2h0c0,.08.06.19.1.33.1.31.23.75.37,1.27.28,1.05.64,2.45,1,3.93l1.47,6.2,1.6,0c.49,0,1.94-.08,3.33-.15h0c4.45-.25,8.23.57,10.56,2.13a19.6,19.6,0,0,1,4.51,4.75,14,14,0,0,1,1.23,9.24,10.51,10.51,0,0,1-1.84,4.2,4.17,4.17,0,0,0-.54.67,1.16,1.16,0,0,0-.19.59,1.29,1.29,0,0,0,.39.93,1.14,1.14,0,0,0,.9.31l.69,0a11.9,11.9,0,0,1,9.38,7.4,22.82,22.82,0,0,1,1.24,9.51c-.57,4.65-1.76,7-4.82,9.51a31,31,0,0,1-11.48,5.78c-.33.09-.63.19-.88.27l-.33.14-.18.08c-.07,0-.16,0-.38.37s-.15.46-.15.52a.42.42,0,0,0,0,.13.68.68,0,0,0,0,.15c0,.1,0,.22.06.37s.14.7.25,1.19c.21,1,.51,2.33.85,3.78.64,2.71,1,4.33,1.12,5.23a5.56,5.56,0,0,1,.06.57l-.75.21c-.72.2-1.69.45-2.73.69a29.62,29.62,0,0,1-3.66.71h0a9.9,9.9,0,0,1-.33-1.15h0c-.21-.87-.81-3.38-1.32-5.54-.26-1.09-.5-2.1-.69-2.84-.09-.37-.17-.68-.24-.91l-.08-.29s0-.07,0-.12.06,0-.19-.32h0c-.35-.42-.56-.36-.69-.37a1.79,1.79,0,0,0-.3,0l-.55.06c-.39.06-.85.15-1.32.26s-.93.22-1.31.34l-.52.18a1.71,1.71,0,0,0-.26.14c-.1.06-.28.09-.45.54s-.07.39-.07.46,0,.12,0,.18,0,.24.07.39c0,.31.14.73.25,1.23.21,1,.52,2.34.87,3.8s.66,2.79.89,3.81c.12.5.21.93.27,1.23,0,.11,0,.19.05.27h0c-.19.07-.48.16-.83.26-.69.21-1.61.46-2.54.7s-1.87.48-2.62.66l-.93.2-.21,0,0-.1c-.08-.24-.19-.6-.32-1.08q-.4-1.44-1.05-4.29c-.36-1.55-.69-3-.94-4-.13-.52-.23-1-.3-1.25s-.07-.26-.1-.35l0-.13s0,0,0-.08a.27.27,0,0,0,0-.08s0-.08-.2-.29h0c-.45-.44-.57-.28-.65-.29h-.15l-.14,0-.27,0-.85.18-2.68.61c-4,1-6.54,1.56-8.07,1.89-.77.17-1.29.27-1.62.32l-.17,0v-.06c0-.26-.08-.64-.12-1.1-.09-.91-.19-2.13-.27-3.44l-.29-4.33.05-.06c-.09.1.05,0,.44-.15s1-.26,1.92-.44h0a17.17,17.17,0,0,0,3.22-.87,2.83,2.83,0,0,0,1.72-1.51h0a3.76,3.76,0,0,0,.08-2c-.14-.84-.41-2-.87-3.88-.42-1.69-1.66-7.12-2.76-12q-1.79-8-2.84-12.26c-.35-1.41-.64-2.52-.88-3.33-.11-.4-.22-.73-.31-1a2.66,2.66,0,0,0-.31-.69h0a4.1,4.1,0,0,0-3.54-1.62h0a9.32,9.32,0,0,0-1.53.2c-.62.12-1.34.28-2,.46a21.51,21.51,0,0,1-2.52.56h-.12c-.06-.18-.13-.41-.21-.7-.19-.64-.42-1.51-.65-2.41-.46-1.81-.91-3.86-1-4.32a.49.49,0,0,0,0-.13l.19-.06c.33-.11.82-.24,1.44-.41,1.23-.32,3-.75,5.07-1.24,1.89-.44,3.62-.86,4.89-1.17l1.51-.37.45-.12.15,0,.09,0s0,.1.35-.23.28-.54.29-.63a.83.83,0,0,0,0-.16.79.79,0,0,0,0-.17,3.63,3.63,0,0,0-.06-.38c-.06-.3-.14-.71-.25-1.21-.21-1-.52-2.34-.87-3.81s-.66-2.84-.89-3.88c-.11-.52-.21-.95-.27-1.26,0-.16-.05-.28-.07-.36h0a.5.5,0,0,1,.13-.07,21.64,21.64,0,0,1,3.2-.92,30.72,30.72,0,0,1,3.65-.76,1.35,1.35,0,0,1,.29,0,1.46,1.46,0,0,1,.09.21c.08.24.18.6.3,1.06.24.92.55,2.24.92,3.94.31,1.42.59,2.74.81,3.72l.27,1.19.08.35a1.24,1.24,0,0,0,.06.23h0a1.15,1.15,0,0,0,.51.6,1,1,0,0,0,.44.14,2.22,2.22,0,0,0,.58,0,14.27,14.27,0,0,0,1.48-.32h0c.5-.12,1-.25,1.32-.36l.47-.15.19-.08c.07,0,.1,0,.36-.24h0a.72.72,0,0,0,.29-.56,1.58,1.58,0,0,0,0-.19c0-.08,0-.13,0-.19s0-.24-.06-.39-.13-.69-.24-1.18c-.2-1-.5-2.28-.84-3.71s-.66-2.75-.88-3.74c-.11-.49-.2-.9-.26-1.2q0-.2-.06-.3l.13-.08a22.77,22.77,0,0,1,3.23-1,27.14,27.14,0,0,1,3.86-.83Zm-13,3.05Zm17.51,6.66Zm-10.83,2a0,0,0,0,1,0,0s0,0-.06,0h0C421,19.25,421,19.25,421,19.25Zm-13,3.28h0l0,0-.08,0A.15.15,0,0,1,408,22.53Zm-13.17,5.36c-.14.11-.07,0,0,0Zm34.8.71a24.92,24.92,0,0,0-3.81.29h0c-1,.17-2.43.49-3.64.79-.61.16-1.17.31-1.6.44l-.56.18-.23.1a.85.85,0,0,0-.36.24h0c-.44.44-.28.56-.29.64a.83.83,0,0,0,0,.16,1.11,1.11,0,0,0,0,.19c0,.12,0,.26.07.44.06.36.15.85.27,1.44.23,1.17.55,2.72.89,4.3s.68,3.17,1,4.44c.15.63.27,1.18.38,1.61a6.69,6.69,0,0,0,.26.93h0a1.47,1.47,0,0,0,.77.76,1.92,1.92,0,0,0,.84.08,18.3,18.3,0,0,0,2.33-.44c4.4-1,8.18-2.52,10.12-4.37h0a8.46,8.46,0,0,0,2.55-4.25h0a6.16,6.16,0,0,0-.35-3,5.92,5.92,0,0,0-1.51-2.63A9.67,9.67,0,0,0,433.44,29a12.41,12.41,0,0,0-3.77-.43Zm0,2a12.86,12.86,0,0,1,3.14.32h0a8.39,8.39,0,0,1,2.65,1.47,5.87,5.87,0,0,1,1.24,3.83h0a7.7,7.7,0,0,1-2,3.17c-1.35,1.28-5,2.93-9.18,3.87-.84.19-1.43.31-1.78.37l-.06-.23c-.1-.41-.23-1-.37-1.58-.29-1.26-.64-2.85-1-4.42s-.66-3.11-.88-4.27c-.09-.44-.16-.82-.22-1.12.38-.12.88-.25,1.43-.39,1.17-.29,2.57-.61,3.48-.76a22.9,22.9,0,0,1,3.49-.26Zm-8.93,1.58c-.05,0-.06,0-.06,0Zm-23.8,3.42c.09.11,0,.09,0,.07A.25.25,0,0,0,396.94,35.59Zm53.4,4.25.09,0h0c-.07,0-.11,0-.09,0Zm-12.15,10.4h-.25a39.44,39.44,0,0,0-4.85.4h0c-1.53.24-3.5.65-5.14,1-.81.19-1.54.39-2.09.56a7.27,7.27,0,0,0-.71.24,1.68,1.68,0,0,0-.3.15c-.11.06-.3,0-.5.56h0c-.12.31-.07.33-.07.39v.12l0,.19c0,.13.05.3.09.5.07.4.18,1,.32,1.61.27,1.31.64,3,1,4.78s.78,3.5,1.1,4.87c.16.68.3,1.27.41,1.71.05.22.1.41.14.56a1.78,1.78,0,0,0,.13.39h0a3,3,0,0,0,.23.44A1.24,1.24,0,0,0,428,69c.09.09.17.33.76.33a2.16,2.16,0,0,0,.63-.09l.86-.2c.67-.16,1.52-.38,2.42-.62,1.79-.48,3.72-1,4.72-1.38h0c4.46-1.53,6.87-2.93,8.47-5.11h0A6.11,6.11,0,0,0,447.19,57h0a10.51,10.51,0,0,0-.84-2.69h0a5.3,5.3,0,0,0-2.2-2.38h0a9.39,9.39,0,0,0-6-1.68Zm0,2h0a6.81,6.81,0,0,1,4.87,1.35h0c1.11.73,1,.65,1.5,1.59a10.25,10.25,0,0,1,.67,2.14c.23,1.41.08,2-1,3.44-1.29,1.75-3.21,2.93-7.53,4.41-.86.3-2.82.87-4.59,1.34-.88.24-1.72.46-2.37.61l-.46.11c0-.1,0-.2-.09-.33l-.4-1.68c-.31-1.36-.71-3.11-1.09-4.84s-.76-3.47-1-4.77c-.12-.58-.22-1.06-.29-1.43l.07,0c.49-.15,1.19-.34,2-.53,1.59-.39,3.54-.79,5-1a37.36,37.36,0,0,1,4.56-.38h.24ZM426,54.3a.17.17,0,0,1-.12.05l0,0Zm3.44,13.37Zm15.91,7.89a.06.06,0,0,1,0,0Zm-.38.73a.11.11,0,0,1-.07,0ZM434,78.37v0a.34.34,0,0,1,0,.08C434,78.36,434,78.38,434,78.37Zm-1.82.45s.05,0,0,.12c0,0,0-.07,0-.09Zm-24.31,4.25c.07.14,0,.06,0,0Zm38.19,3.7s0,0,0,0l0,0,.08,0Zm-13.22,3s0,0,0,0h0l.07-.05Zm-7.35,2s0,0,0,0Zm0,.07c.05,0,0,0,0,0Z"/></g><text class="cls-4" transform="translate(0 69.55)">BITGESELL</text></g></g></svg>