<?xml version="1.0" encoding="utf-8"?>
<!-- Generator: Adobe Illustrator 25.4.1, SVG Export Plug-In . SVG Version: 6.00 Build 0)  -->
<svg version="1.1" id="Layer_1" xmlns="http://www.w3.org/2000/svg" xmlns:xlink="http://www.w3.org/1999/xlink" x="0px" y="0px"
	 viewBox="0 0 218 47" style="enable-background:new 0 0 218 47;" xml:space="preserve">
<style type="text/css">
	.st0{fill-rule:evenodd;clip-rule:evenodd;fill:#00005E;}
	.st1{filter:url(#Adobe_OpacityMaskFilter);}
	.st2{fill-rule:evenodd;clip-rule:evenodd;fill:#FFFFFF;}
	.st3{mask:url(#mask-2_00000075134286456824923840000005644851315671965626_);fill-rule:evenodd;clip-rule:evenodd;fill:#00005E;}
	.st4{filter:url(#Adobe_OpacityMaskFilter_00000097478485676467579080000016421624437882045323_);}
	.st5{mask:url(#mask-2_00000069370807157056312030000006377104880994045879_);fill-rule:evenodd;clip-rule:evenodd;fill:#00005E;}
	.st6{filter:url(#Adobe_OpacityMaskFilter_00000052795571192190371040000009331867666326554783_);}
	.st7{mask:url(#mask-2_00000093158251987838073170000001287490692195705753_);fill-rule:evenodd;clip-rule:evenodd;fill:#00005E;}
	.st8{filter:url(#Adobe_OpacityMaskFilter_00000111891110070833308900000000235175241187121326_);}
	.st9{mask:url(#mask-2_00000101075469724145897790000005784411016654499725_);fill-rule:evenodd;clip-rule:evenodd;fill:#00005E;}
	.st10{filter:url(#Adobe_OpacityMaskFilter_00000067213885325496179870000017510878267051703184_);}
	.st11{mask:url(#mask-2_00000142859928467016497140000012130009396529926795_);fill-rule:evenodd;clip-rule:evenodd;fill:#00005E;}
	.st12{filter:url(#Adobe_OpacityMaskFilter_00000065771843453351495460000013815894912393899424_);}
	.st13{mask:url(#mask-2_00000096027543887162321600000007956635627974022545_);fill-rule:evenodd;clip-rule:evenodd;fill:#00005E;}
	.st14{filter:url(#Adobe_OpacityMaskFilter_00000034786450215049411330000016133357421954951599_);}
	.st15{mask:url(#mask-2_00000037655295262121160240000013918664236517986198_);fill-rule:evenodd;clip-rule:evenodd;fill:#00005E;}
	.st16{filter:url(#Adobe_OpacityMaskFilter_00000150801357870715089180000004570581517284790676_);}
	.st17{mask:url(#mask-2_00000010306855309496098330000009708705384067463863_);fill-rule:evenodd;clip-rule:evenodd;fill:#00005E;}
	.st18{filter:url(#Adobe_OpacityMaskFilter_00000146497384523668643970000016625614706127094915_);}
	.st19{mask:url(#mask-2_00000126301601214812229370000006957650755313058463_);fill-rule:evenodd;clip-rule:evenodd;fill:#6E38E5;}
</style>
<g id="Page-1">
	<g id="Landing-Page" transform="translate(-53.000000, -48.000000)">
		<g id="Group-7" transform="translate(53.943051, 48.712076)">
			<g id="Group-13" transform="translate(0.000000, 0.000000)">
				<path id="Fill-1" class="st0" d="M81.9,28.4c0-2.6-2-3.6-4.5-3.6h-5v7.3h5C79.9,32.1,81.9,31,81.9,28.4L81.9,28.4z M76.4,20.3
					c2.6,0,4.1-1,4.1-3.4s-1.8-3.4-4.1-3.4h-4v6.7H76.4z M67.6,9.1h8.9c4.5,0,8.7,2.1,8.7,7.8c0,3.3-2.5,4.9-2.9,5
					c0.4,0.1,4.3,1.5,4.3,6.4c0,4.8-4,8.1-9.2,8.1h-9.9V9.1z"/>
				<g id="Clip-4">
				</g>
				<defs>
					<filter id="Adobe_OpacityMaskFilter" filterUnits="userSpaceOnUse" x="90.2" y="8.9" width="6.2" height="27.6">
						<feColorMatrix  type="matrix" values="1 0 0 0 0  0 1 0 0 0  0 0 1 0 0  0 0 0 1 0"/>
					</filter>
				</defs>
				
					<mask maskUnits="userSpaceOnUse" x="90.2" y="8.9" width="6.2" height="27.6" id="mask-2_00000075134286456824923840000005644851315671965626_">
					<g class="st1">
						<polygon id="path-1_00000022546487715438628560000006589753362750061458_" class="st2" points="0,46 216.3,46 216.3,0 0,0 
													"/>
					</g>
				</mask>
				<path id="Fill-3" class="st3" d="M90.9,36.5h4.7V18h-4.7V36.5z M93.3,8.9c1.7,0,3.1,1.4,3.1,3.1c0,1.7-1.4,3.1-3.1,3.1
					c-1.7,0-3.1-1.4-3.1-3.1C90.2,10.3,91.6,8.9,93.3,8.9L93.3,8.9z"/>
				<defs>
					
						<filter id="Adobe_OpacityMaskFilter_00000073718997273057757020000014339247830272939702_" filterUnits="userSpaceOnUse" x="99.6" y="12.4" width="14.4" height="24.5">
						<feColorMatrix  type="matrix" values="1 0 0 0 0  0 1 0 0 0  0 0 1 0 0  0 0 0 1 0"/>
					</filter>
				</defs>
				
					<mask maskUnits="userSpaceOnUse" x="99.6" y="12.4" width="14.4" height="24.5" id="mask-2_00000069370807157056312030000006377104880994045879_">
					<g style="filter:url(#Adobe_OpacityMaskFilter_00000073718997273057757020000014339247830272939702_);">
						<polygon id="path-1_00000098920674161240189070000012459004885245176448_" class="st2" points="0,46 216.3,46 216.3,0 0,0 
													"/>
					</g>
				</mask>
				<path id="Fill-5" class="st5" d="M99.6,18h3.6v-5.5h4.7V18h5.6v4.2H108v7.5c0,2.3,1.2,2.9,2.4,2.9c1.1,0,2-0.7,2-0.7l1.7,3.8
					c0,0-1.8,1.2-4.5,1.2c-3.6,0-6.3-2.6-6.3-6.6v-8.2h-3.6V18z"/>
				<defs>
					
						<filter id="Adobe_OpacityMaskFilter_00000034789090971746366460000006008060991899358081_" filterUnits="userSpaceOnUse" x="116.1" y="17.5" width="19" height="28.5">
						<feColorMatrix  type="matrix" values="1 0 0 0 0  0 1 0 0 0  0 0 1 0 0  0 0 0 1 0"/>
					</filter>
				</defs>
				
					<mask maskUnits="userSpaceOnUse" x="116.1" y="17.5" width="19" height="28.5" id="mask-2_00000093158251987838073170000001287490692195705753_">
					<g style="filter:url(#Adobe_OpacityMaskFilter_00000034789090971746366460000006008060991899358081_);">
						<polygon id="path-1_00000106863915759416646480000005827886216759857839_" class="st2" points="0,46 216.3,46 216.3,0 0,0 
													"/>
					</g>
				</mask>
				<path id="Fill-6" class="st7" d="M130.4,24.5c0,0-1.3-2.6-4.4-2.6c-3.2,0-5.1,2.3-5.1,5.4c0,3,1.9,5.4,5.1,5.4
					c3,0,4.4-2.6,4.4-2.6V24.5z M125.2,37c-4.8,0-9-4-9-9.7c0-5.7,4.2-9.8,9-9.8c3.9,0,5.6,2.9,5.6,2.9V18h4.3v18.7
					c0,6.5-4.8,9.3-10,9.3c-5.3,0-8.8-3.5-8.8-3.5l2.7-3.6c0,0,2.6,2.7,6.1,2.7c3.6,0,5.3-2,5.3-4.8v-2.2
					C129.8,35.4,128.1,37,125.2,37L125.2,37z"/>
				<defs>
					
						<filter id="Adobe_OpacityMaskFilter_00000167384724796429547730000015435401619828047031_" filterUnits="userSpaceOnUse" x="138.6" y="17.5" width="18.7" height="19.5">
						<feColorMatrix  type="matrix" values="1 0 0 0 0  0 1 0 0 0  0 0 1 0 0  0 0 0 1 0"/>
					</filter>
				</defs>
				
					<mask maskUnits="userSpaceOnUse" x="138.6" y="17.5" width="18.7" height="19.5" id="mask-2_00000101075469724145897790000005784411016654499725_">
					<g style="filter:url(#Adobe_OpacityMaskFilter_00000167384724796429547730000015435401619828047031_);">
						<polygon id="path-1_00000051353467771029802920000006021345338366574489_" class="st2" points="0,46 216.3,46 216.3,0 0,0 
													"/>
					</g>
				</mask>
				<path id="Fill-7" class="st9" d="M152.6,25.5c-0.1-1.6-1.6-3.8-4.7-3.8c-3,0-4.4,2.1-4.5,3.8H152.6z M157.3,27.2
					c0,0.4,0,1.1,0,1.8h-13.9c0.4,1.6,2.3,3.8,5.2,3.8c3.2,0,5.1-1.9,5.1-1.9l2.3,3.5c0,0-2.9,2.7-7.4,2.7c-5.6,0-10-4.3-10-9.7
					s4-9.8,9.3-9.8C153,17.5,157.3,21.4,157.3,27.2L157.3,27.2z"/>
				<defs>
					
						<filter id="Adobe_OpacityMaskFilter_00000120551262374908933200000003850628802660313989_" filterUnits="userSpaceOnUse" x="159.6" y="17.5" width="16.5" height="19.5">
						<feColorMatrix  type="matrix" values="1 0 0 0 0  0 1 0 0 0  0 0 1 0 0  0 0 0 1 0"/>
					</filter>
				</defs>
				
					<mask maskUnits="userSpaceOnUse" x="159.6" y="17.5" width="16.5" height="19.5" id="mask-2_00000142859928467016497140000012130009396529926795_">
					<g style="filter:url(#Adobe_OpacityMaskFilter_00000120551262374908933200000003850628802660313989_);">
						<polygon id="path-1_00000139292142104372271890000010793862654091459460_" class="st2" points="0,46 216.3,46 216.3,0 0,0 
													"/>
					</g>
				</mask>
				<path id="Fill-8" class="st11" d="M162.2,30.2c0,0,2.5,2.7,5.6,2.7c1.9,0,3.5-0.5,3.5-1.7c0-1.2-0.9-1.4-3.7-2
					c-3.7-0.8-6.9-2.3-6.9-5.9c0-2.9,2.9-5.8,8-5.8c4.2,0,7,2.3,7,2.3l-2.4,3.4c0,0-2.1-1.6-4.6-1.6c-1.8,0-3.4,0.6-3.4,1.8
					c0,1.1,1.3,1.4,4.4,2.1c3.7,0.8,6.3,2,6.3,5.8c0,3.2-3.4,5.7-8.1,5.7c-5.4,0-8.4-3.4-8.4-3.4L162.2,30.2z"/>
				<defs>
					
						<filter id="Adobe_OpacityMaskFilter_00000129170940693655870960000004107411476659747730_" filterUnits="userSpaceOnUse" x="178.4" y="17.5" width="18.7" height="19.5">
						<feColorMatrix  type="matrix" values="1 0 0 0 0  0 1 0 0 0  0 0 1 0 0  0 0 0 1 0"/>
					</filter>
				</defs>
				
					<mask maskUnits="userSpaceOnUse" x="178.4" y="17.5" width="18.7" height="19.5" id="mask-2_00000096027543887162321600000007956635627974022545_">
					<g style="filter:url(#Adobe_OpacityMaskFilter_00000129170940693655870960000004107411476659747730_);">
						<polygon id="path-1_00000103947344571054550990000010547034368968563901_" class="st2" points="0,46 216.3,46 216.3,0 0,0 
													"/>
					</g>
				</mask>
				<path id="Fill-9" class="st13" d="M192.4,25.5c-0.1-1.6-1.6-3.8-4.7-3.8c-3,0-4.4,2.1-4.5,3.8H192.4z M197.1,27.2
					c0,0.4,0,1.1,0,1.8h-13.9c0.4,1.6,2.3,3.8,5.2,3.8c3.2,0,5.1-1.9,5.1-1.9l2.3,3.5c0,0-2.9,2.7-7.4,2.7c-5.6,0-10-4.3-10-9.7
					s4-9.8,9.3-9.8C192.8,17.5,197.1,21.4,197.1,27.2L197.1,27.2z"/>
				<defs>
					
						<filter id="Adobe_OpacityMaskFilter_00000108276439986100800940000014107739066248234171_" filterUnits="userSpaceOnUse" x="201.1" y="6.9" width="4.7" height="29.6">
						<feColorMatrix  type="matrix" values="1 0 0 0 0  0 1 0 0 0  0 0 1 0 0  0 0 0 1 0"/>
					</filter>
				</defs>
				
					<mask maskUnits="userSpaceOnUse" x="201.1" y="6.9" width="4.7" height="29.6" id="mask-2_00000037655295262121160240000013918664236517986198_">
					<g style="filter:url(#Adobe_OpacityMaskFilter_00000108276439986100800940000014107739066248234171_);">
						<polygon id="path-1_00000125564137480977045910000015486737924042688171_" class="st2" points="0,46 216.3,46 216.3,0 0,0 
													"/>
					</g>
				</mask>
				<polygon id="Fill-10" class="st15" points="201.1,36.5 205.8,36.5 205.8,6.9 201.1,6.9 				"/>
				<defs>
					
						<filter id="Adobe_OpacityMaskFilter_00000009563993633805260810000017112997544113183128_" filterUnits="userSpaceOnUse" x="211.6" y="6.9" width="4.7" height="29.6">
						<feColorMatrix  type="matrix" values="1 0 0 0 0  0 1 0 0 0  0 0 1 0 0  0 0 0 1 0"/>
					</filter>
				</defs>
				
					<mask maskUnits="userSpaceOnUse" x="211.6" y="6.9" width="4.7" height="29.6" id="mask-2_00000010306855309496098330000009708705384067463863_">
					<g style="filter:url(#Adobe_OpacityMaskFilter_00000009563993633805260810000017112997544113183128_);">
						<polygon id="path-1_00000026148571763540510030000007445739290964401323_" class="st2" points="0,46 216.3,46 216.3,0 0,0 
													"/>
					</g>
				</mask>
				<polygon id="Fill-11" class="st17" points="211.6,36.5 216.3,36.5 216.3,6.9 211.6,6.9 				"/>
				<defs>
					
						<filter id="Adobe_OpacityMaskFilter_00000111898309315214225470000010786181252194321294_" filterUnits="userSpaceOnUse" x="0" y="0" width="43.8" height="43.6">
						<feColorMatrix  type="matrix" values="1 0 0 0 0  0 1 0 0 0  0 0 1 0 0  0 0 0 1 0"/>
					</filter>
				</defs>
				
					<mask maskUnits="userSpaceOnUse" x="0" y="0" width="43.8" height="43.6" id="mask-2_00000126301601214812229370000006957650755313058463_">
					<g style="filter:url(#Adobe_OpacityMaskFilter_00000111898309315214225470000010786181252194321294_);">
						<polygon id="path-1_00000006668686314866301700000000507762916888361345_" class="st2" points="0,46 216.3,46 216.3,0 0,0 
													"/>
					</g>
				</mask>
				<path id="Fill-12" class="st19" d="M39.7,39.6H4V4h9.2v26.4h26.5V39.6z M26.6,4v13.2h13.1v9.1H17.3V4H26.6z M30.6,13.2h9V4h-9
					V13.2z M43.7,0H26.6H13.3H0v43.6h43.8V30.4L43.7,0L43.7,0z"/>
			</g>
		</g>
	</g>
</g>
</svg>
